<svg id="Symbol" xmlns="http://www.w3.org/2000/svg" viewBox="0 0 297 297"><defs><style>.cls-1{fill:#272727;}</style></defs><g id="Symbol-2" data-name="Symbol"><polygon class="cls-1" points="247.5 165 148.5 264 115.5 231 99 247.5 148.5 297 165 280.5 264 181.5 247.5 165"/><rect class="cls-1" x="4.84" y="136.83" width="23.33" height="23.33" transform="translate(109.83 31.82) rotate(45)"/><rect class="cls-1" x="268.84" y="136.83" width="23.33" height="23.33" transform="translate(187.16 -154.86) rotate(45)"/><polygon class="cls-1" points="198 49.5 165 16.5 148.5 0 132 16.5 33 115.5 49.5 132 148.5 33 181.5 66 198 49.5"/><rect class="cls-1" x="136.84" y="43.49" width="23.33" height="210.01" transform="translate(148.51 358.52) rotate(-135)"/><rect class="cls-1" x="186.34" y="83.33" width="23.33" height="163.34" transform="translate(221.34 421.69) rotate(-135)"/><rect class="cls-1" x="87.34" y="50.33" width="23.33" height="163.34" transform="translate(75.67 295.35) rotate(-135)"/></g></svg>