<svg fill="#000000" xmlns="http://www.w3.org/2000/svg"  viewBox="0 0 48 48" width="48px" height="48px"><path d="M 12.5 4 C 10.032499 4 8 6.0324991 8 8.5 L 8 37.253906 A 1.50015 1.50015 0 0 0 8 37.740234 L 8 39.5 C 8 41.967501 10.032499 44 12.5 44 L 38.5 44 A 1.50015 1.50015 0 1 0 38.5 41 L 12.5 41 C 11.653501 41 11 40.346499 11 39.5 L 11 39 L 38.5 39 A 1.50015 1.50015 0 0 0 40 37.5 L 40 8.5 C 40 6.0324991 37.967501 4 35.5 4 L 12.5 4 z M 12.5 7 L 35.5 7 C 36.346499 7 37 7.6535009 37 8.5 L 37 36 L 11 36 L 11 8.5 C 11 7.6535009 11.653501 7 12.5 7 z M 17.5 14 A 1.50015 1.50015 0 1 0 17.5 17 L 30.5 17 A 1.50015 1.50015 0 1 0 30.5 14 L 17.5 14 z"/></svg>